# xmcd CD database file
#
# Track frame offsets:
#	150
#	19929
#	37677
#	55427
#	75284
#
# Disc length: 1239 seconds
#
# Revision: 0
# Processed by: cddbd v1.5.1PL2 Copyright (c) Steve Scherf et al.
# Submitted via: CDex 1.51
#
DISCID=2d04d505
DTITLE=チェオク（小川範子） - 悲歌・宿命
DYEAR=2005
DGENRE=JPop
TTITLE0=悲歌
TTITLE1=宿命〜チェオクナレーションバージョン〜
TTITLE2=宿命
TTITLE3=悲歌(Instrumental)
TTITLE4=宿命(Instrumental)
EXTD=YEAR: 2005
EXTT0=
EXTT1=
EXTT2=
EXTT3=
EXTT4=
PLAYORDER=
